<svg width="24" height="24" viewBox="0 0 24 24" fill="none" xmlns="http://www.w3.org/2000/svg">
<path d="M12.0001 22.275L7.7751 18.05L9.0251 16.825L11.1501 18.925V14.35H12.8501V18.925L14.9751 16.825L16.2251 18.05L12.0001 22.275ZM5.8251 16.1L1.7251 12L5.8501 7.87501L7.0751 9.12501L5.0751 11.15H9.6501V12.85H5.0751L7.0501 14.85L5.8251 16.1ZM18.1751 16.1L16.9501 14.85L18.9251 12.85H14.3751V11.15H18.9251L16.9501 9.15001L18.1751 7.90001L22.2751 12L18.1751 16.1ZM11.1501 9.62501V5.07501L9.1501 7.05001L7.9001 5.82501L12.0001 1.72501L16.1001 5.82501L14.8501 7.05001L12.8501 5.07501V9.62501H11.1501Z" fill="#1889F8"/>
</svg>
