<svg width="24" height="24" viewBox="0 0 24 24" fill="none" xmlns="http://www.w3.org/2000/svg">
<path d="M7.75 8.05V6.075H21.7V8.05H7.75ZM7.75 12.8V10.8H21.7V12.8H7.75ZM7.75 17.525V15.55H21.7V17.525H7.75ZM4.05 8.1C3.75 8.1 3.5 8 3.3 7.8C3.1 7.6 3 7.35 3 7.05C3 6.76667 3.10417 6.52083 3.3125 6.3125C3.52083 6.10417 3.76667 6 4.05 6C4.35 6 4.6 6.10417 4.8 6.3125C5 6.52083 5.1 6.76667 5.1 7.05C5.1 7.35 5 7.6 4.8 7.8C4.6 8 4.35 8.1 4.05 8.1ZM4.05 12.85C3.75 12.85 3.5 12.7458 3.3 12.5375C3.1 12.3292 3 12.0833 3 11.8C3 11.5 3.10417 11.25 3.3125 11.05C3.52083 10.85 3.76667 10.75 4.05 10.75C4.35 10.75 4.6 10.8542 4.8 11.0625C5 11.2708 5.1 11.5167 5.1 11.8C5.1 12.1 5 12.35 4.8 12.55C4.6 12.75 4.35 12.85 4.05 12.85ZM4.05 17.575C3.75 17.575 3.5 17.475 3.3 17.275C3.1 17.075 3 16.825 3 16.525C3 16.2417 3.10417 15.9958 3.3125 15.7875C3.52083 15.5792 3.76667 15.475 4.05 15.475C4.35 15.475 4.6 15.5792 4.8 15.7875C5 15.9958 5.1 16.2417 5.1 16.525C5.1 16.825 5 17.075 4.8 17.275C4.6 17.475 4.35 17.575 4.05 17.575Z" fill="#1889F8"/>
</svg>
